HIERARCHY
ROOT Hips
{
	OFFSET 0.000000 0.000000 0.000000
	CHANNELS 6 Xposition Yposition Zposition Xrotation Yrotation Zrotation
	JOINT LeftUpLeg_virtual
	{
		OFFSET 0.000000 0.000000 0.000000
		CHANNELS 3 Xrotation Yrotation Zrotation
		JOINT LeftUpLeg
		{
			OFFSET 11.394100 -6.187798 -0.413800
			CHANNELS 3 Xrotation Yrotation Zrotation
			JOINT LeftLeg
			{
				OFFSET 0.430247 -32.302673 3.732800
				CHANNELS 3 Xrotation Yrotation Zrotation
				JOINT LeftFoot
				{
					OFFSET -0.430247 -48.264931 -6.423300
					CHANNELS 3 Xrotation Yrotation Zrotation
					JOINT LeftToeBase
					{
						OFFSET 4.230900 -16.068199 23.438400
						CHANNELS 3 Xrotation Yrotation Zrotation
						JOINT LeftToe_End
						{
							OFFSET 4.510700 0.695400 19.974600
							CHANNELS 3 Xrotation Yrotation Zrotation
							End Site
							{
								OFFSET 0 0 0
							}
						}
					}
				}
			}
		}
	}
	JOINT RightUpLeg_virtual
	{
		OFFSET 0.000000 0.000000 0.000000
		CHANNELS 3 Xrotation Yrotation Zrotation
		JOINT RightUpLeg
		{
			OFFSET -11.333700 -6.187798 -0.413800
			CHANNELS 3 Xrotation Yrotation Zrotation
			JOINT RightLeg
			{
				OFFSET -0.430392 -32.302628 3.733000
				CHANNELS 3 Xrotation Yrotation Zrotation
				JOINT RightFoot
				{
					OFFSET 0.430392 -48.264973 -6.423500
					CHANNELS 3 Xrotation Yrotation Zrotation
					JOINT RightToeBase
					{
						OFFSET -4.230900 -16.068199 23.438400
						CHANNELS 3 Xrotation Yrotation Zrotation
						JOINT RightToe_End
						{
							OFFSET -4.510700 0.695400 19.974600
							CHANNELS 3 Xrotation Yrotation Zrotation
							End Site
							{
								OFFSET 0 0 0
							}
						}
					}
				}
			}
		}
	}
	JOINT Spine_virtual
	{
		OFFSET 0.000000 0.000000 0.000000
		CHANNELS 3 Xrotation Yrotation Zrotation
		JOINT Spine
		{
			OFFSET -0.002400 12.777504 0.315300
			CHANNELS 3 Xrotation Yrotation Zrotation
			JOINT Spine1
			{
				OFFSET -0.002067 5.816869 0.032633
				CHANNELS 3 Xrotation Yrotation Zrotation
				JOINT Spine1_split
				{
					OFFSET -0.002067 5.816869 0.032633
					CHANNELS 3 Xrotation Yrotation Zrotation
					JOINT Spine2
					{
						OFFSET -0.002067 5.816869 0.032633
						CHANNELS 3 Xrotation Yrotation Zrotation
						JOINT Neck_virtual
						{
							OFFSET 0.000000 0.000000 0.000000
							CHANNELS 3 Xrotation Yrotation Zrotation
							JOINT Neck
							{
								OFFSET -0.003700 21.199493 -0.826900
								CHANNELS 3 Xrotation Yrotation Zrotation
								JOINT Head
								{
									OFFSET 0.000000 20.442200 4.834800
									CHANNELS 3 Xrotation Yrotation Zrotation
									JOINT HeadTop_End
									{
										OFFSET 0.000000 34.668396 4.968400
										CHANNELS 3 Xrotation Yrotation Zrotation
										End Site
										{
											OFFSET 0 0 0
										}
									}
								}
							}
						}
						JOINT LeftShoulder_virtual
						{
							OFFSET 0.000000 0.000000 0.000000
							CHANNELS 3 Xrotation Yrotation Zrotation
							JOINT LeftShoulder
							{
								OFFSET 3.288150 8.794197 -1.372250
								CHANNELS 3 Xrotation Yrotation Zrotation
								JOINT LeftShoulder_split
								{
									OFFSET 3.288150 8.794197 -1.372250
									CHANNELS 3 Xrotation Yrotation Zrotation
									JOINT LeftArm
									{
										OFFSET 11.953299 -2.279007 -0.146200
										CHANNELS 3 Xrotation Yrotation Zrotation
										JOINT LeftForeArm
										{
											OFFSET 18.448900 0.000000 0.000000
											CHANNELS 3 Xrotation Yrotation Zrotation
											JOINT LeftHand
											{
												OFFSET 29.527798 0.000000 0.000000
												CHANNELS 3 Xrotation Yrotation Zrotation
												End Site
												{
													OFFSET 0 0 0
												}
											}
										}
									}
								}
							}
						}
						JOINT RightShoulder_virtual
						{
							OFFSET 0.000000 0.000000 0.000000
							CHANNELS 3 Xrotation Yrotation Zrotation
							JOINT RightShoulder
							{
								OFFSET -3.249400 8.794197 -1.372250
								CHANNELS 3 Xrotation Yrotation Zrotation
								JOINT RightShoulder_split
								{
									OFFSET -3.249400 8.794197 -1.372250
									CHANNELS 3 Xrotation Yrotation Zrotation
									JOINT RightArm
									{
										OFFSET -11.953299 -2.279007 -0.146200
										CHANNELS 3 Xrotation Yrotation Zrotation
										JOINT RightForeArm
										{
											OFFSET -18.448900 0.000000 0.000000
											CHANNELS 3 Xrotation Yrotation Zrotation
											JOINT RightHand
											{
												OFFSET -29.527802 0.000000 0.000000
												CHANNELS 3 Xrotation Yrotation Zrotation
												End Site
												{
													OFFSET 0 0 0
												}
											}
										}
									}
								}
							}
						}
					}
				}
			}
		}
	}
}
MOTION
Frames: 7
Frame Time: 0.03333333
104.801743 110.720833 187.732712 0.000000 0.000000 0.000000 -126.857896 -62.552156 163.248379 -54.037650 4.898355 17.045575 79.762970 2.530868 -4.047200 3.155288 -11.149281 0.745656 -1.193412 0.048245 -3.557469 0.000000 0.000000 0.000000 -113.466900 -72.012795 173.420798 -71.872114 4.174859 -37.980486 66.133020 9.601057 -6.330259 -2.422493 -1.750883 15.244776 6.593092 0.168757 -4.442907 0.000000 0.000000 0.000000 -123.614376 -64.600189 168.779425 14.934443 4.370805 1.040079 -2.708327 1.849596 6.997154 0.227376 -0.237426 1.670486 0.000000 0.000000 0.000000 1.353749 1.826537 5.425524 18.016354 3.890946 10.864492 19.905739 36.413108 -22.219901 0.000000 0.000000 0.000000 0.346047 1.790612 6.346053 2.125424 -6.511472 6.304279 4.352261 0.661181 1.493926 -5.323578 10.328603 1.349733 2.292848 -37.866842 -1.302570 0.000000 0.000000 0.000000 -1.531294 1.942657 6.098156 3.767757 2.574803 17.378168 -0.382394 1.158025 1.161482 -14.742644 23.044100 13.123295 1.631239 19.557777 -3.107413 0.000000 0.000000 0.000000 
111.444832 104.018951 197.925247 0.000000 0.000000 0.000000 -124.480512 -59.293453 165.295304 -52.942739 4.436299 13.814952 78.463629 3.986137 -2.513324 6.987243 -8.172285 1.581481 -0.233440 0.157684 -3.487354 0.000000 0.000000 0.000000 -112.964581 -66.681969 172.846051 -73.125836 3.999258 -34.533617 60.449490 8.496933 -5.715263 5.505728 -2.056419 14.170095 3.196107 -0.197614 -3.202529 0.000000 0.000000 0.000000 -123.043700 -60.483477 168.031915 16.074830 4.710276 0.429319 -1.827605 2.695791 6.222513 0.256679 0.208947 2.497414 0.000000 0.000000 0.000000 1.282983 2.645000 4.439769 18.043657 3.946443 9.078298 18.716055 34.653149 -21.165906 0.000000 0.000000 0.000000 0.617929 2.566544 5.237825 2.329916 -6.313003 6.067986 3.213745 2.199794 0.966771 -7.255210 15.121653 2.686420 2.962200 -38.670728 -0.619924 0.000000 0.000000 0.000000 -1.261053 2.871766 5.164378 3.467182 5.116909 18.606048 -0.813605 -0.781320 1.061890 -15.845337 22.474901 16.240733 2.209217 26.898461 -2.537865 0.000000 0.000000 0.000000 
117.745117 94.893661 209.233856 0.000000 0.000000 0.000000 -121.233208 -53.182462 168.619803 -50.664793 5.372867 12.207072 75.370878 5.523334 -1.125148 8.548687 -3.658217 1.482206 0.284982 0.352950 -3.359848 0.000000 0.000000 0.000000 -113.300264 -58.419735 171.512839 -77.428336 6.918492 -29.083570 54.128781 7.001728 -5.461615 13.507598 -1.248224 14.140390 0.663683 -0.759952 -1.929474 0.000000 0.000000 0.000000 -120.744794 -54.188156 169.715898 17.399407 4.499727 0.188413 -0.831606 3.427929 5.926606 0.524768 0.566865 2.935080 0.000000 0.000000 0.000000 1.319047 3.445318 4.074882 17.592318 3.837037 7.466198 16.588163 32.582577 -19.705144 0.000000 0.000000 0.000000 0.975360 3.295623 4.853385 2.437834 -5.020547 4.850243 2.811591 4.091539 -0.540804 -9.518640 21.095027 3.225647 2.749089 -45.882964 -0.659996 0.000000 0.000000 0.000000 -1.020095 3.699523 4.896760 3.227585 6.870138 19.557880 -1.188766 -1.659713 1.252819 -18.101239 20.452527 20.118146 2.152354 37.370854 -1.390636 0.000000 0.000000 0.000000 
123.646645 83.525810 221.074753 0.000000 0.000000 0.000000 -118.441518 -43.939526 171.646711 -47.570000 8.500404 12.669493 70.406389 6.095199 -0.018524 7.132916 0.796466 0.200133 0.261955 0.508154 -2.700100 0.000000 0.000000 0.000000 -113.521808 -47.759145 170.262109 -85.896302 11.504857 -21.629006 48.506374 5.775434 -5.640699 20.163357 0.913603 14.910349 0.453257 -1.259409 -1.245393 0.000000 0.000000 0.000000 -117.991709 -45.749577 172.246210 18.743934 3.540879 0.151189 0.219770 3.883601 6.195783 0.822777 -0.581080 2.576000 0.000000 0.000000 0.000000 1.572182 4.084430 4.399963 17.064360 3.483768 6.243636 13.811897 29.894652 -17.923093 0.000000 0.000000 0.000000 1.417702 3.896371 5.286678 2.647885 -3.601625 2.573369 3.353959 5.390645 -2.239593 -10.849760 26.481183 2.310779 2.094086 -57.379176 -1.274640 0.000000 0.000000 0.000000 -0.766102 4.319242 5.413712 3.174757 7.406174 20.221233 -1.535674 -1.331656 1.397333 -20.390022 17.503287 24.363015 0.780285 48.630233 0.703365 0.000000 0.000000 0.000000 
129.309769 71.375397 232.698929 0.000000 0.000000 0.000000 -116.532781 -32.506141 173.570256 -45.858980 14.050596 15.807250 65.319196 5.074461 0.166728 3.329880 4.261229 -1.828587 0.311824 0.682533 -1.505666 0.000000 0.000000 0.000000 -113.092947 -35.823755 169.895669 -98.500111 15.147309 -12.514893 45.762213 5.154728 -5.983534 25.067983 3.994419 15.819408 2.155751 -1.517270 -1.075727 0.000000 0.000000 0.000000 -115.466370 -35.384820 174.741429 19.947308 1.981386 0.156081 1.236924 4.042331 6.785758 1.220279 -2.052730 1.951969 0.000000 0.000000 0.000000 1.994987 4.489679 5.126147 16.907435 2.770141 5.605491 11.562700 26.414747 -16.208403 0.000000 0.000000 0.000000 1.921610 4.263318 6.160205 3.133267 -2.724413 -0.552844 4.560800 4.945214 -3.110638 -10.433286 28.604521 0.002294 2.393286 -67.317375 -1.431717 0.000000 0.000000 0.000000 -0.301529 4.700043 6.342124 3.302928 6.350556 21.010350 -1.895474 -0.471519 1.213927 -21.525625 14.751586 28.335772 -2.299158 58.198935 3.828061 0.000000 0.000000 0.000000 
135.045151 60.223572 243.860947 0.000000 0.000000 0.000000 -115.260918 -20.365428 174.269790 -45.688740 20.760199 21.918740 62.928657 2.969662 -1.171250 -1.610141 6.633732 -3.211980 0.846098 0.861898 -0.171868 0.000000 0.000000 0.000000 -111.674276 -24.266253 170.027833 -111.852995 15.647601 -3.454468 46.588252 4.876723 -6.155711 28.232696 7.175897 16.093203 4.548915 -1.576419 -1.036748 0.000000 0.000000 0.000000 -113.247391 -24.619395 176.848160 20.695388 0.025621 0.060715 2.122099 3.958130 7.243716 1.251821 -4.205495 1.125911 0.000000 0.000000 0.000000 2.513782 4.658037 5.757077 17.312356 1.865121 5.617349 10.689641 22.151067 -14.599406 0.000000 0.000000 0.000000 2.490466 4.429377 6.822588 3.861812 -3.097567 -4.005632 5.419762 3.209175 -2.644032 -7.522997 26.762010 -3.262085 4.678814 -71.325179 0.234598 0.000000 0.000000 0.000000 0.350964 4.836274 7.122564 3.476825 3.569204 22.114798 -1.875899 0.901820 0.376406 -21.125282 13.147135 31.440358 -6.627928 64.855529 7.530142 0.000000 0.000000 0.000000 
140.853317 51.728592 253.322540 0.000000 0.000000 0.000000 -114.067547 -10.154264 174.321167 -46.883115 26.724481 30.366324 64.597402 0.844651 -3.785152 -6.461379 8.142482 -2.414526 2.022377 1.122311 0.739357 0.000000 0.000000 0.000000 -109.534808 -14.569166 170.852579 -121.863907 13.251029 3.195205 51.170787 4.467897 -5.813276 30.374886 9.444737 14.993553 5.236903 -1.518811 -0.491807 0.000000 0.000000 0.000000 -111.580197 -14.724626 177.742996 20.417676 -1.846508 -0.053977 2.706105 3.764247 7.107087 0.793358 -7.326265 0.179895 0.000000 0.000000 0.000000 3.039971 4.641955 5.738015 18.077161 0.689965 6.024456 11.476430 17.185096 -13.055684 0.000000 0.000000 0.000000 2.996396 4.432683 6.677432 4.685862 -4.721242 -6.722687 5.614164 0.975712 -1.301221 -2.768950 20.789414 -5.751239 6.957762 -69.774002 2.180180 0.000000 0.000000 0.000000 1.132014 4.866242 7.180966 3.820668 -0.870111 23.348998 -1.947243 1.860689 -0.803608 -19.683456 13.150224 33.051798 -10.364248 68.440654 10.070185 0.000000 0.000000 0.000000 
